<?xml version="1.0" standalone="no"?>
<!DOCTYPE svg PUBLIC "-//W3C//DTD SVG 20010904//EN"
 "http://www.w3.org/TR/2001/REC-SVG-20010904/DTD/svg10.dtd">
<svg version="1.0" xmlns="http://www.w3.org/2000/svg"
 width="256.000000pt" height="256.000000pt" viewBox="0 0 256.000000 256.000000"
 preserveAspectRatio="xMidYMid meet">

<g transform="translate(0.000000,256.000000) scale(0.100000,-0.100000)"
fill="#000000" stroke="none">
<path d="M1203 2497 l-78 -63 2 -60 1 -60 -65 -18 c-144 -38 -311 -147 -405
-264 -58 -72 -119 -185 -149 -277 -23 -69 -24 -78 -27 -577 -3 -492 -2 -508
17 -545 11 -21 152 -173 313 -337 256 -261 296 -298 316 -292 15 5 22 15 22
33 0 14 -36 239 -81 500 l-80 475 -107 124 c-90 104 -110 134 -129 189 -14 44
-18 65 -10 62 7 -3 95 -39 198 -81 l185 -77 22 -112 c20 -105 20 -116 6 -181
l-14 -70 54 -85 c60 -95 78 -111 102 -96 8 6 40 49 70 96 l54 85 -14 70 c-14
65 -14 76 6 181 l22 112 185 77 c103 42 191 78 198 81 8 3 4 -18 -10 -62 -19
-55 -39 -85 -129 -189 l-107 -124 -87 -488 c-88 -495 -90 -514 -51 -522 19 -4
605 586 630 634 17 33 18 70 15 542 -3 499 -4 508 -27 577 -86 260 -285 461
-530 535 l-56 17 2 61 3 61 -81 66 c-45 36 -87 65 -95 65 -7 0 -48 -28 -91
-63z m-76 -309 c-3 -7 -5 -2 -5 12 0 14 2 19 5 13 2 -7 2 -19 0 -25z m-130
-12 c0 -8 -6 -12 -15 -9 -11 5 -11 7 0 14 7 5 13 9 14 9 0 0 1 -6 1 -14z m460
-58 c-3 -8 -6 -5 -6 6 -1 11 2 17 5 13 3 -3 4 -12 1 -19z m-310 -160 c-3 -8
-6 -5 -6 6 -1 11 2 17 5 13 3 -3 4 -12 1 -19z m290 -90 c-3 -7 -5 -2 -5 12 0
14 2 19 5 13 2 -7 2 -19 0 -25z m-10 -120 c-3 -7 -5 -2 -5 12 0 14 2 19 5 13
2 -7 2 -19 0 -25z m-850 -100 c-3 -8 -6 -5 -6 6 -1 11 2 17 5 13 3 -3 4 -12 1
-19z m110 -144 c-3 -3 -12 -4 -19 -1 -8 3 -5 6 6 6 11 1 17 -2 13 -5z m1139
-332 c-17 -16 -18 -16 -5 5 7 12 15 20 18 17 3 -2 -3 -12 -13 -22z"/>
</g>
</svg>
